# xmcd
#
# Track frame offsets:
#       150
#       13227
#       28032
#       43605
#       58857
#       80136
#       92595
#       109021
#       123911
#       134870
#
# Disc length: 1963 seconds
#
# Revision: 1
# Processed by: cddbd v1.4PL0 Copyright (c) Steve Scherf et al.
# Submitted via: MusiCat 1.1b1
#
DISCID=8b07a90a
DTITLE=KK - Heimaland
DYEAR=1900
DGENRE=
TTITLE0=Ég fann ást
TTITLE1=Nú verð ég
TTITLE2=Vaknaðu pabbi (Labbakútur)
TTITLE3=Ég vil fá að sjá þig
TTITLE4=Ástin sigrar
TTITLE5=Karlsvagninn
TTITLE6=Plastpokamaður
TTITLE7=Krabbinn
TTITLE8=Ferðaryk
TTITLE9=Lokalag
EXTD=1997\n\n553\n
EXTT0=
EXTT1=
EXTT2=
EXTT3=
EXTT4=
EXTT5=
EXTT6=
EXTT7=
EXTT8=
EXTT9=
PLAYORDER=
